<svg version="1.1" id="Layer_1" xmlns="http://www.w3.org/2000/svg" xmlns:xlink="http://www.w3.org/1999/xlink" x="0px" y="0px"
	 width="100%" viewBox="0 0 512 512" enable-background="new 0 0 512 512" xml:space="preserve">
<path fill="#C6C3BD" opacity="1.000000" stroke="none" 
	d="
M279.312653,512.777832 
	C264.645782,513.000000 250.291550,513.000000 235.468658,513.000000 
	C227.114075,512.069458 219.125778,512.326965 211.271637,511.185272 
	C191.222000,508.270691 172.118256,502.126495 153.528778,494.153931 
	C119.608963,479.606537 90.821732,457.962128 65.691681,431.187561 
	C63.070099,428.394409 60.547714,425.517487 58.703033,421.682587 
	C58.938175,410.031464 63.614712,399.947388 67.868767,389.891541 
	C88.632950,340.808746 123.727631,305.389282 171.592194,282.391388 
	C178.450821,279.095947 185.742371,276.810394 193.580780,273.809814 
	C162.439545,249.443192 147.032547,217.967651 149.185486,179.170807 
	C150.675018,152.328766 161.690353,128.928116 180.792908,109.758896 
	C221.221405,69.189262 288.901215,67.660233 330.859039,107.596527 
	C355.103729,130.673126 366.064545,159.192200 364.276428,192.978180 
	C362.487152,226.785477 346.772156,252.634048 320.695068,273.698822 
	C324.973999,275.899109 329.015594,276.888489 332.822235,278.416687 
	C357.537933,288.339233 379.373993,302.500153 398.696838,320.949585 
	C416.524597,337.971497 430.914429,357.338867 441.498322,379.447968 
	C447.734375,392.474701 453.776703,405.724091 455.438477,420.764709 
	C454.544861,424.513000 452.166290,426.950745 449.950134,429.363312 
	C427.010742,454.335876 400.819000,475.097412 370.115540,489.759277 
	C348.744232,499.964722 326.586151,508.008881 302.947845,511.096619 
	C295.236145,512.104004 287.429626,512.547668 279.312653,512.777832 
z"/>
<path fill="#EFECE8" opacity="1.000000" stroke="none" 
	d="
M454.484253,421.128967 
	C447.357178,392.926697 435.137421,367.511505 417.348480,344.687775 
	C397.220337,318.862762 372.378448,299.040497 342.860291,285.007080 
	C335.480865,281.498779 327.821228,278.685272 320.062866,276.130859 
	C318.892853,275.745605 317.090546,275.835297 317.007904,274.150696 
	C316.946716,272.902649 318.441711,272.470154 319.349854,271.777649 
	C337.876221,257.651031 351.686554,240.057663 357.987427,217.368790 
	C367.879272,181.749115 362.326782,148.855469 339.089722,119.647568 
	C323.465668,100.008858 303.064423,87.392883 278.468353,82.825996 
	C245.517456,76.707825 215.366211,83.410477 189.135773,105.220901 
	C166.543686,124.006035 154.132645,148.490891 151.341095,177.161880 
	C148.754364,203.729416 156.260696,228.294327 172.411667,249.848083 
	C178.529648,258.012665 185.855606,265.046143 193.934143,271.288818 
	C195.078964,272.173462 197.208115,272.660126 196.954605,274.266998 
	C196.659302,276.138611 194.351608,276.006897 192.862411,276.488647 
	C172.385498,283.112701 153.512054,292.880859 136.373154,305.839600 
	C97.681152,335.094635 71.832581,373.009766 59.931511,420.622955 
	C56.299107,421.607635 54.943253,418.614380 53.313313,416.544739 
	C45.587749,406.735260 38.620956,396.393280 32.387661,385.564880 
	C18.575871,361.571228 9.048970,335.964020 3.546153,308.850708 
	C2.258366,302.505554 2.518794,295.980652 1.243273,289.300079 
	C1.000000,286.299988 1.000000,283.599976 1.000000,280.449982 
	C1.135770,279.833344 1.271540,279.666656 1.203655,279.250000 
	C1.000000,264.645782 1.000000,250.291550 1.000000,235.468658 
	C1.135771,234.833328 1.271541,234.666672 1.203656,234.250000 
	C1.000000,231.299988 1.000000,228.599976 1.000000,225.449982 
	C2.868905,220.776382 1.984548,216.211487 2.615337,211.828308 
	C5.502011,191.769592 11.640571,172.683105 19.564554,154.111343 
	C28.831301,132.392456 41.035042,112.442825 56.000725,94.211029 
	C76.562889,69.161377 100.666969,48.235943 128.894073,32.152866 
	C152.350220,18.788157 177.276398,9.389729 203.701920,3.869380 
	C210.553757,2.438017 217.551163,2.637654 224.705475,1.242139 
	C227.700012,1.000000 230.400024,1.000000 233.550018,1.000000 
	C234.166672,1.135771 234.333328,1.271541 234.750000,1.203656 
	C249.354233,1.000000 263.708466,1.000000 278.531342,1.000000 
	C279.166656,1.135770 279.333344,1.271540 279.750000,1.203655 
	C282.700012,1.000000 285.400024,1.000000 288.550018,1.000000 
	C293.223633,2.868908 297.788513,1.984553 302.171692,2.615334 
	C322.230469,5.501966 341.316895,11.640619 359.888702,19.564575 
	C381.607605,28.831306 401.557281,41.035049 419.789062,56.000778 
	C444.838684,76.562988 465.764160,100.667076 481.847229,128.894226 
	C495.211975,152.350388 504.610291,177.276627 510.130707,203.702148 
	C511.562073,210.553909 511.362305,217.551285 512.757874,224.705505 
	C513.000000,227.700012 513.000000,230.400024 513.000000,233.550018 
	C512.864197,234.166672 512.728455,234.333328 512.796326,234.750000 
	C513.000000,249.354233 513.000000,263.708466 513.000000,278.531342 
	C512.864197,279.166656 512.728455,279.333344 512.796326,279.750000 
	C513.000000,282.700012 513.000000,285.400024 513.000000,288.550018 
	C511.153320,293.227875 511.996338,297.790161 511.379852,302.175415 
	C508.581360,322.081818 502.465851,341.009216 494.671082,359.447021 
	C486.201050,379.482208 475.008118,397.922546 461.779480,415.146454 
	C459.895752,417.599060 458.344666,420.553131 454.484253,421.128967 
z"/>
<path fill="#FFFFFF" opacity="1.000000" stroke="none" 
	d="
M453.904114,421.288483 
	C468.914429,403.523499 480.958710,384.334686 490.454376,363.438324 
	C498.418457,345.912262 504.368164,327.807556 508.182068,308.979248 
	C509.301147,303.454834 510.103333,297.865234 510.992279,292.296143 
	C511.175751,291.146484 511.045288,289.932953 512.638428,289.127197 
	C513.000000,362.263245 512.963684,435.526520 513.106079,508.789490 
	C513.113281,512.491455 512.224792,513.095764 508.718262,513.090332 
	C432.458069,512.971741 356.197693,513.000000 279.468658,513.000000 
	C285.298462,511.992554 291.588501,510.928436 297.896942,509.987946 
	C319.681915,506.740112 340.507812,500.351379 360.714600,491.606262 
	C380.033112,483.245575 397.818146,472.367249 414.385773,459.552643 
	C428.853302,448.362427 441.848785,435.521179 453.904114,421.288483 
z"/>
<path fill="#FFFFFF" opacity="1.000000" stroke="none" 
	d="
M1.000000,289.468658 
	C2.926454,289.459229 2.809503,291.003693 3.017089,292.517303 
	C6.259346,316.157623 12.686578,338.862823 22.288916,360.750519 
	C31.832117,382.503448 44.418053,402.279144 59.617996,420.835510 
	C79.087952,443.881042 101.414597,463.153351 127.113289,478.307587 
	C152.669968,493.378113 180.161804,503.532135 209.384338,508.936890 
	C217.689209,510.472809 226.004868,511.821716 234.717468,512.700073 
	C158.406616,513.000000 81.813171,512.966187 5.220039,513.103943 
	C1.544514,513.110535 0.901418,512.260376 0.907379,508.727814 
	C1.030429,435.797821 1.000000,362.867523 1.000000,289.468658 
z"/>
<path fill="#FFFFFF" opacity="1.000000" stroke="none" 
	d="
M224.531342,1.000000 
	C224.624695,2.630266 223.384338,2.814030 221.973969,3.004207 
	C175.053009,9.331101 133.144226,27.330750 96.314888,57.096790 
	C65.984741,81.610100 42.083969,111.294159 25.303303,146.519760 
	C13.793886,170.680054 6.081806,196.042511 2.936148,222.701340 
	C2.833400,223.572113 2.517415,224.295471 1.361535,224.872803 
	C1.000000,151.738327 1.035824,78.476570 0.894913,5.215164 
	C0.887818,1.526426 1.757458,0.902602 5.276886,0.908466 
	C78.205330,1.029966 151.134033,1.000000 224.531342,1.000000 
z"/>
<path fill="#FFFFFF" opacity="1.000000" stroke="none" 
	d="
M513.000000,224.531342 
	C511.369720,224.624680 511.186005,223.384232 510.995850,221.973907 
	C504.668732,175.053040 486.669312,133.144211 456.903198,96.314880 
	C432.389862,65.984749 402.705780,42.084057 367.480286,25.303324 
	C343.320007,13.793848 317.957520,6.081919 291.298706,2.936146 
	C290.427948,2.833393 289.704559,2.517370 289.127197,1.361537 
	C362.261658,1.000000 435.523407,1.035820 508.784790,0.894920 
	C512.473450,0.887826 513.097412,1.757346 513.091553,5.276858 
	C512.970032,78.205315 513.000000,151.134018 513.000000,224.531342 
z"/>
<path fill="#FFFFFF" opacity="1.000000" stroke="none" 
	d="
M234.750000,1.000000 
	C235.000000,1.000000 234.644135,1.305578 234.644135,1.305578 
	C234.644135,1.305578 234.201340,1.250399 234.100677,1.125200 
	C234.000000,1.000000 234.500000,1.000000 234.750000,1.000000 
z"/>
<path fill="#FFFFFF" opacity="1.000000" stroke="none" 
	d="
M279.750000,1.000000 
	C280.000000,1.000000 279.652344,1.309618 279.652344,1.309618 
	C279.652344,1.309618 279.211395,1.242725 279.105713,1.121362 
	C279.000000,1.000000 279.500000,1.000000 279.750000,1.000000 
z"/>
<path fill="#FFFFFF" opacity="1.000000" stroke="none" 
	d="
M1.000000,234.250000 
	C1.245093,234.247131 1.292849,234.494888 1.071633,234.871643 
	C1.000000,235.000000 1.000000,234.500000 1.000000,234.250000 
z"/>
<path fill="#FFFFFF" opacity="1.000000" stroke="none" 
	d="
M513.000000,234.750000 
	C512.764648,234.750046 512.713867,234.499985 512.923828,234.124908 
	C513.000000,234.000000 513.000000,234.500000 513.000000,234.750000 
z"/>
<path fill="#FFFFFF" opacity="1.000000" stroke="none" 
	d="
M1.000000,279.250000 
	C1.235302,279.249969 1.286075,279.500031 1.076160,279.875122 
	C1.000000,280.000000 1.000000,279.500000 1.000000,279.250000 
z"/>
<path fill="#FFFFFF" opacity="1.000000" stroke="none" 
	d="
M513.000000,279.750000 
	C512.754883,279.752899 512.707031,279.505127 512.928223,279.128357 
	C513.000000,279.000000 513.000000,279.500000 513.000000,279.750000 
z"/>
</svg>